<svg width="30" height="36" viewBox="0 0 30 36" fill="none" xmlns="http://www.w3.org/2000/svg">
<path d="M19.9569 18.0046L10.043 17.9953L15.0225 1.70859L19.9569 18.0046Z" fill="#E74C3C"/>
<path d="M10.0431 17.9954L19.957 18.0047L14.9775 34.2914L10.0431 17.9954Z" fill="#ECF0F1"/>
<path d="M15.0225 1.70859L15 17.9999L19.9569 18.0046L15.0225 1.70859Z" fill="#C0392B"/>
<path d="M15 18L14.9775 34.2913L19.9569 18.0046L15 18Z" fill="#BDC3C7"/>
<path d="M14.0889 16.3873C13.1891 16.8359 12.7839 17.852 13.2716 18.83L16.5317 17.2046C16.0441 16.2266 14.9887 15.9386 14.0889 16.3873Z" fill="#BDC3C7"/>
<path d="M15.7143 19.6473C16.6141 19.1987 16.938 18.0196 16.5317 17.2045L13.2715 18.83C13.6779 19.645 14.8145 20.0959 15.7143 19.6473Z" fill="#7F8C8D"/>
</svg>
