<svg width="26" height="26" viewBox="0 0 26 26" fill="none" xmlns="http://www.w3.org/2000/svg">
<g clip-path="url(#clip0_14_34)">
<path d="M23.8333 11.9167H21.6125C21.3652 10.0064 20.4925 8.23168 19.1304 6.86962C17.7683 5.50756 15.9936 4.63477 14.0833 4.3875V2.16667C14.0833 1.87935 13.9692 1.6038 13.766 1.40063C13.5629 1.19747 13.2873 1.08333 13 1.08333C12.7127 1.08333 12.4371 1.19747 12.234 1.40063C12.0308 1.6038 11.9167 1.87935 11.9167 2.16667V4.33333C9.99833 4.58322 8.21753 5.46386 6.85451 6.83669C5.49149 8.20952 4.62364 9.99658 4.38751 11.9167H2.16668C1.87936 11.9167 1.60381 12.0308 1.40064 12.234C1.19748 12.4371 1.08334 12.7127 1.08334 13C1.08334 13.2873 1.19748 13.5629 1.40064 13.766C1.60381 13.9692 1.87936 14.0833 2.16668 14.0833H4.38751C4.63479 15.9936 5.50757 17.7683 6.86963 19.1304C8.23169 20.4924 10.0064 21.3652 11.9167 21.6125V23.7792C11.9167 24.0665 12.0308 24.342 12.234 24.5452C12.4371 24.7484 12.7127 24.8625 13 24.8625C13.2873 24.8625 13.5629 24.7484 13.766 24.5452C13.9692 24.342 14.0833 24.0665 14.0833 23.7792V21.6667C16.0017 21.4168 17.7825 20.5361 19.1455 19.1633C20.5085 17.7905 21.3764 16.0034 21.6125 14.0833H23.8333C24.1207 14.0833 24.3962 13.9692 24.5994 13.766C24.8025 13.5629 24.9167 13.2873 24.9167 13C24.9167 12.7127 24.8025 12.4371 24.5994 12.234C24.3962 12.0308 24.1207 11.9167 23.8333 11.9167ZM13 19.5C11.7144 19.5 10.4577 19.1188 9.3888 18.4046C8.31988 17.6903 7.48676 16.6752 6.99479 15.4874C6.50282 14.2997 6.3741 12.9928 6.62491 11.7319C6.87571 10.471 7.49477 9.31285 8.40382 8.40381C9.31286 7.49476 10.471 6.8757 11.7319 6.62489C12.9928 6.37409 14.2997 6.50281 15.4875 6.99478C16.6752 7.48675 17.6903 8.31987 18.4046 9.38879C19.1188 10.4577 19.5 11.7144 19.5 13C19.5 14.7239 18.8152 16.3772 17.5962 17.5962C16.3772 18.8152 14.7239 19.5 13 19.5Z" fill="#6C6C6C"/>
<path d="M13 16.7917C15.0941 16.7917 16.7917 15.0941 16.7917 13C16.7917 10.9059 15.0941 9.20833 13 9.20833C10.9059 9.20833 9.20834 10.9059 9.20834 13C9.20834 15.0941 10.9059 16.7917 13 16.7917Z" fill="#6C6C6C"/>
</g>
<defs>
<clipPath id="clip0_14_34">
<rect width="26" height="26" fill="white"/>
</clipPath>
</defs>
</svg>
