<svg width="26" height="26" viewBox="0 0 26 26" fill="none" xmlns="http://www.w3.org/2000/svg">
<g clip-path="url(#clip0_14_87)">
<path d="M21.9903 21.9724C19.5599 19.7297 16.385 18.4667 13.0783 18.4269C9.77151 18.3872 6.56723 19.5737 4.08372 21.7573L2.95992 20.4822C5.75845 18.0207 9.36947 16.6828 13.0963 16.7268C16.8231 16.7708 20.4016 18.1934 23.1413 20.7203L21.9903 21.9724Z" fill="#6C6C6C"/>
<path d="M12.9167 7.44227C13.7506 7.44227 14.5658 7.68957 15.2591 8.15286C15.9525 8.61615 16.493 9.27465 16.8121 10.0451C17.1312 10.8155 17.2147 11.6633 17.052 12.4812C16.8893 13.299 16.4878 14.0503 15.8981 14.64C15.3084 15.2296 14.5571 15.6312 13.7393 15.7939C12.9214 15.9566 12.0737 15.8731 11.3032 15.5539C10.5328 15.2348 9.87426 14.6944 9.41097 14.001C8.94768 13.3077 8.70042 12.4925 8.70042 11.6586C8.70177 10.5408 9.14639 9.46912 9.93681 8.6787C10.7272 7.88828 11.7989 7.44362 12.9167 7.44227ZM12.9167 5.74215C11.7465 5.74215 10.6027 6.08914 9.62971 6.73925C8.65676 7.38936 7.89845 8.31337 7.45065 9.39446C7.00285 10.4755 6.88569 11.6652 7.11398 12.8128C7.34226 13.9605 7.90573 15.0147 8.73316 15.8421C9.56059 16.6696 10.6148 17.233 11.7625 17.4613C12.9102 17.6896 14.0998 17.5725 15.1809 17.1247C16.2619 16.6769 17.1859 15.9185 17.8361 14.9456C18.4862 13.9726 18.8332 12.8287 18.8332 11.6586C18.8332 10.0895 18.2098 8.58458 17.1002 7.47504C15.9907 6.36549 14.4858 5.74215 12.9167 5.74215Z" fill="#6C6C6C"/>
<path d="M13 1.70305C15.2349 1.70305 17.4196 2.36578 19.2779 3.60743C21.1361 4.84908 22.5845 6.61388 23.4397 8.67866C24.295 10.7434 24.5187 13.0155 24.0827 15.2074C23.6467 17.3994 22.5705 19.4128 20.9902 20.9932C19.4099 22.5735 17.3965 23.6497 15.2045 24.0857C13.0125 24.5217 10.7405 24.2979 8.67571 23.4427C6.61093 22.5874 4.84614 21.1391 3.6045 19.2808C2.36285 17.4226 1.70011 15.2378 1.70011 13.0029C1.70348 10.0071 2.8951 7.13486 5.0135 5.01645C7.13191 2.89804 10.0041 1.70643 13 1.70305ZM13 0.00292969C10.4289 0.00292969 7.91543 0.765376 5.77759 2.19383C3.63975 3.62229 1.9735 5.65261 0.989559 8.02805C0.00561985 10.4035 -0.251806 13.0174 0.249802 15.5391C0.75141 18.0609 1.98954 20.3772 3.80762 22.1953C5.6257 24.0134 7.94208 25.2515 10.4638 25.7531C12.9856 26.2548 15.5994 25.9973 17.9749 25.0134C20.3503 24.0294 22.3806 22.3632 23.8091 20.2253C25.2376 18.0875 26 15.5741 26 13.0029C26 9.55511 24.6304 6.24852 22.1924 3.81054C19.7544 1.37257 16.4478 0.00292969 13 0.00292969Z" fill="#6C6C6C"/>
</g>
<defs>
<clipPath id="clip0_14_87">
<rect width="26" height="26" fill="white"/>
</clipPath>
</defs>
</svg>
